<?xml version="1.0" encoding="UTF-8"?>
<svg id="Layer_5" xmlns="http://www.w3.org/2000/svg" version="1.1" viewBox="0 0 128 128">
  <!-- Generator: Adobe Illustrator 30.2.1, SVG Export Plug-In . SVG Version: 2.1.1 Build 1)  -->
  <defs>
    <style>
      .st0 {
        fill: none;
      }

      .st0, .st1 {
        stroke: #d6e1ec;
        stroke-linecap: round;
        stroke-linejoin: round;
      }

      .st1 {
        fill: #d6e1ec;
      }
    </style>
  </defs>
  <polygon class="st0" points="14.8 94.4 39.4 51.8 64 9.3 30.7 18.2 39.4 51.7 6 61.1 14.8 94.4"/>
  <polygon class="st0" points="113.1 94.2 63.9 94.1 14.9 94.1 39.2 118.4 63.9 94.2 88.7 118.4 113.1 94.2"/>
  <polygon class="st0" points="64.1 9.3 88.7 51.6 113.1 94.1 122 61.1 88.7 51.5 97.3 18.2 64.1 9.3"/>
  <polygon class="st0" points="14.8 94.3 6 61.1 30.7 18.2 64 9.3 97.3 18.2 122 61.1 113.2 94 88.6 118.7 39.4 118.7 14.8 94.3"/>
  <polygon class="st1" points="58.9 18.2 69 18.2 64.2 9.3 58.9 18.2"/>
  <polygon class="st1" points="25.2 94.1 20.2 85.3 14.9 93.9 25.2 94.1"/>
  <polygon class="st1" points="113.1 94.1 108.1 85.3 102.8 93.9 113.1 94.1"/>
</svg>